<?xml version="1.0" encoding="UTF-8"?><svg width="108" height="90" viewBox="0 0 108 90" xmlns="http://www.w3.org/2000/svg" xmlns:xlink="http://www.w3.org/1999/xlink"><svg width="18" height="18" viewBox="0 0 18 18" id="bold" x="18" xmlns="http://www.w3.org/2000/svg"><title>加粗</title><path d="M6.517 8.701h3.16c.687.009 2.522-.207 2.522-1.907S10.359 5 9.677 5h-3.16v3.701zm0 5.299h3.415c.742.01 2.725-.224 2.725-2.062 0-1.837-1.988-1.938-2.725-1.938H6.517v4zM5 15V4h5.04c1.1 0 1.939.258 2.564.79.606.512.872 1.23.872 2.192 0 1.427-1.1 2.073-1.419 2.257.488.17 1.065.689 1.35 1.033.385.466.55 1.039.55 1.8 0 1.12-.314 1.822-1.1 2.368-.657.437-1.654.56-2.817.56H5z" fill="#525C6F" fill-rule="evenodd"/></svg><svg width="18" height="18" viewBox="0 0 18 18" id="checked" x="18" y="54" xmlns="http://www.w3.org/2000/svg"><title>complete task list</title><g transform="translate(-1147 -46)" fill="#525C6F" fill-rule="evenodd"><path d="M1162 50v1h-9.997c-.55 0-1.003.452-1.003 1.003v8.994a1 1 0 0 0 1.003 1.003h8.994c.556 0 1.003-.448 1.003-1.003V56.5h1v4.497a2.001 2.001 0 0 1-2.003 2.003h-8.994a2 2 0 0 1-2.003-2.003v-8.994c0-1.106.904-2.003 2.003-2.003H1162z" fill-rule="nonzero"/><path d="M1154 57h1v1h-1zM1153 56h1v1h-1zM1155 58h1v1h-1zM1156 59h1v1h-1zM1157 58h1v1h-1zM1158 57h1v1h-1zM1159 56h1v1h-1zM1160 55h1v1h-1zM1161 54h1v1h-1zM1162 53h1v1h-1z"/></g></svg><svg width="18" height="18" viewBox="0 0 18 18" id="code" y="18" xmlns="http://www.w3.org/2000/svg"><title>code</title><g transform="translate(-1266 -46)" fill="#525C6F" fill-rule="evenodd"><path d="M1270 53h1v1h-1zM1269 54h1v1h-1zM1268 55h1v1h-1zM1267 56h1v1h-1zM1268 57h1v1h-1zM1269 58h1v1h-1zM1270 59h1v1h-1zM1280 60h-1v-1h1zM1281 59h-1v-1h1zM1282 58h-1v-1h1zM1283 57h-1v-1h1zM1282 56h-1v-1h1zM1281 55h-1v-1h1zM1280 54h-1v-1h1zM1278 50l.866.5-7 12.124-.866-.5z"/></g></svg><svg width="18" height="18" viewBox="0 0 18 18" id="flow" x="18" y="18" xmlns="http://www.w3.org/2000/svg"><title>flowchart</title><g transform="translate(2 8)" fill="#525C6F" fill-rule="evenodd"><path d="M0 2h13v1H0zM12 1h1v1h-1zM12 3h1v1h-1zM12 4h1v1h-1zM13 3h1v1h-1zM13 2h1v1h-1zM14 2h1v1h-1zM13 1h1v1h-1zM12 0h1v1h-1z"/></g></svg><svg width="18" height="18" viewBox="0 0 18 18" id="formula" x="36" xmlns="http://www.w3.org/2000/svg"><title>mathematical formula</title><g transform="translate(3 5)" fill="#525C6F" fill-rule="evenodd"><path d="M0 2h1v1H0zM1 3h1v1H1zM2 4h1v1H2zM3 5h1v1H3zM4 6h1v1H4zM5 7h1v1H5zM3 7h1v1H3zM2 8h1v1H2zM1 9h1v1H1zM0 10h1v1H0zM6 8h1v1H6zM7 9h1v1H7zM8 10h1v1H8zM5 5h1v1H5zM6 4h1v1H6zM7 3h1v1H7zM8 2h1v1H8zM10 0h1v1h-1zM11 0h1v1h-1zM11 1h1v1h-1zM11 2h1v1h-1zM10 2h1v1h-1zM12 2h1v1h-1zM12 0h1v1h-1z"/></g></svg><svg width="18" height="18" viewBox="0 0 18 18" id="gantt" x="36" y="18" xmlns="http://www.w3.org/2000/svg"><title>gantt diagram</title><g transform="translate(-1469 -46)" fill="#525C6F" fill-rule="evenodd"><path d="M1472 51h13v1h-13zM1472 55h13v1h-13zM1472 59h13v1h-13z"/><path d="M1482 50h1v3h-1zM1474 54h1v3h-1zM1482 58h1v3h-1z"/></g></svg><svg width="18" height="18" viewBox="0 0 18 18" id="heading1" y="36" xmlns="http://www.w3.org/2000/svg"><title>1</title><g transform="translate(-587 -46)" fill="none" fill-rule="evenodd"><path d="M591.304 50v3.27c.275-.293.58-.49.916-.594a3.658 3.658 0 0 1 1.084-.156c.338 0 .649.054.932.162.284.108.529.257.733.446.205.19.364.412.477.67.112.256.169.535.169.837v4.878h-1.29v-4.709c0-.207-.036-.383-.105-.527a.997.997 0 0 0-.28-.355 1.104 1.104 0 0 0-.403-.2c-.15-.04-.305-.06-.463-.06-.211 0-.422.044-.631.132-.21.088-.4.208-.568.361a1.873 1.873 0 0 0-.412.54 1.45 1.45 0 0 0-.159.67v4.148H590V50h1.304zm9.372 9.513v-6.925a3.805 3.805 0 0 1-1.382.956c-.53.214-1.118.32-1.767.32v-1.229c.352 0 .675-.04.97-.122a3.49 3.49 0 0 0 .79-.317 2.85 2.85 0 0 0 .608-.453c.174-.171.319-.347.436-.527.117-.18.204-.358.26-.534.057-.175.085-.335.085-.48h1.27v9.311h-1.27z" fill="#525C6F"/></g></svg><svg width="18" height="18" viewBox="0 0 18 18" id="heading2" x="18" y="36" xmlns="http://www.w3.org/2000/svg"><title>2</title><g transform="translate(-611 -46)" fill="none" fill-rule="evenodd"><path d="M615.304 50v3.27c.275-.293.58-.49.916-.594a3.658 3.658 0 0 1 1.084-.156c.338 0 .649.054.932.162.284.108.529.257.733.446.205.19.364.412.477.67.112.256.169.535.169.837v4.878h-1.29v-4.709c0-.207-.036-.383-.105-.527a.997.997 0 0 0-.28-.355 1.104 1.104 0 0 0-.403-.2c-.15-.04-.305-.06-.463-.06-.211 0-.422.044-.631.132-.21.088-.4.208-.568.361a1.873 1.873 0 0 0-.412.54 1.45 1.45 0 0 0-.159.67v4.148H614V50h1.304zm5.595 3.203c.05-.455.162-.867.338-1.237.175-.37.404-.684.685-.946.282-.261.612-.463.99-.604a3.534 3.534 0 0 1 1.25-.213c.478 0 .899.074 1.264.223.365.148.67.345.919.59.247.246.433.528.557.845.124.318.186.646.186.984 0 .378-.056.717-.17 1.016-.112.3-.261.572-.448.818a3.956 3.956 0 0 1-.649.669c-.245.2-.503.39-.774.57-.27.181-.541.358-.814.531-.272.174-.53.353-.77.537a5.016 5.016 0 0 0-.652.595 2.408 2.408 0 0 0-.453.71h4.73v1.222h-6.162v-1.04c0-.325.07-.62.21-.889.139-.268.322-.518.55-.75.227-.232.486-.449.777-.652.29-.202.588-.4.892-.59.304-.192.601-.383.892-.572.29-.189.548-.387.773-.594.226-.208.408-.427.548-.66.14-.231.21-.485.21-.76 0-.288-.043-.541-.126-.76a1.535 1.535 0 0 0-.345-.547 1.402 1.402 0 0 0-.513-.327 1.816 1.816 0 0 0-.632-.109c-.27 0-.518.044-.743.132a1.69 1.69 0 0 0-.588.382c-.166.167-.298.37-.395.611a2.586 2.586 0 0 0-.172.815h-1.365z" fill="#525C6F"/></g></svg><svg width="18" height="18" viewBox="0 0 18 18" id="heading3" x="36" y="36" xmlns="http://www.w3.org/2000/svg"><title>3</title><path d="M4.304 4v3.27c.275-.293.58-.49.916-.594a3.658 3.658 0 0 1 1.084-.156c.338 0 .649.054.932.162.284.108.529.257.733.446.205.19.364.412.477.67.112.256.169.535.169.837v4.878h-1.29V8.804c0-.207-.036-.383-.105-.527a.997.997 0 0 0-.28-.355 1.104 1.104 0 0 0-.403-.2c-.15-.04-.305-.06-.463-.06-.211 0-.422.044-.631.132-.21.088-.4.208-.568.361a1.873 1.873 0 0 0-.412.54 1.45 1.45 0 0 0-.159.67v4.148H3V4h1.304zm5.71 3.06c.067-.373.176-.731.327-1.074.151-.342.35-.645.595-.908.245-.264.543-.473.892-.629.349-.155.753-.233 1.213-.233.428 0 .813.061 1.155.183.342.121.633.29.872.506.238.217.42.473.547.77.126.298.19.622.19.974 0 .405-.098.775-.291 1.111a2.508 2.508 0 0 1-.818.848c.234.104.446.227.635.372.19.144.35.31.483.5.133.189.236.404.308.645.072.24.108.51.108.807 0 .442-.084.831-.25 1.17-.167.337-.391.62-.673.847-.281.228-.609.4-.983.517-.373.117-.77.176-1.189.176-.441 0-.848-.069-1.22-.206a2.98 2.98 0 0 1-.986-.598 3.508 3.508 0 0 1-.73-.96 4.98 4.98 0 0 1-.456-1.29h1.365c.068.383.174.701.318.956.144.254.31.458.496.611.187.153.386.263.595.328.21.065.416.098.618.098.216 0 .432-.04.645-.118.214-.08.406-.19.575-.331.169-.142.306-.315.412-.517.106-.203.159-.43.159-.683 0-.243-.044-.47-.132-.679a1.592 1.592 0 0 0-.378-.547 1.806 1.806 0 0 0-.595-.368 2.14 2.14 0 0 0-.78-.135h-.75V8.054h.75c.27 0 .498-.038.685-.115.187-.076.338-.177.453-.3.115-.124.198-.265.25-.423.052-.158.078-.32.078-.486 0-.455-.132-.811-.395-1.068-.264-.257-.62-.385-1.071-.385-.257 0-.483.052-.68.155a1.707 1.707 0 0 0-.506.406 1.983 1.983 0 0 0-.338.57 2.693 2.693 0 0 0-.166.653h-1.337z" fill="#525C6F" fill-rule="evenodd"/></svg><svg width="18" height="18" viewBox="0 0 18 18" id="heading4" x="54" xmlns="http://www.w3.org/2000/svg"><title>4</title><path d="M4.304 4v3.27c.275-.293.58-.49.916-.594a3.658 3.658 0 0 1 1.084-.156c.338 0 .649.054.932.162.284.108.529.257.733.446.205.19.364.412.477.67.112.256.169.535.169.837v4.878h-1.29V8.804c0-.207-.036-.383-.105-.527a.997.997 0 0 0-.28-.355 1.104 1.104 0 0 0-.403-.2c-.15-.04-.305-.06-.463-.06-.211 0-.422.044-.631.132-.21.088-.4.208-.568.361a1.873 1.873 0 0 0-.412.54 1.45 1.45 0 0 0-.159.67v4.148H3V4h1.304zm9.46 9.513v-2.23H9.656v-1.29l4.114-5.669h1.257v5.906h1.31v1.054h-1.31v2.23h-1.263zm-2.838-3.283h2.838v-4l-2.838 4z" fill="#525C6F" fill-rule="evenodd"/></svg><svg width="18" height="18" viewBox="0 0 18 18" id="heading5" x="54" y="18" xmlns="http://www.w3.org/2000/svg"><title>5</title><path d="M4.304 4v3.27c.275-.293.58-.49.916-.594a3.658 3.658 0 0 1 1.084-.156c.338 0 .649.054.932.162.284.108.529.257.733.446.205.19.364.412.477.67.112.256.169.535.169.837v4.878h-1.29V8.804c0-.207-.036-.383-.105-.527a.997.997 0 0 0-.28-.355 1.104 1.104 0 0 0-.403-.2c-.15-.04-.305-.06-.463-.06-.211 0-.422.044-.631.132-.21.088-.4.208-.568.361a1.873 1.873 0 0 0-.412.54 1.45 1.45 0 0 0-.159.67v4.148H3V4h1.304zm5.716 5.27l.629-4.946h5.08V5.4h-4.033c-.013.13-.034.304-.06.52l-.092.733-.145 1.118c.166-.09.336-.162.51-.216a4.332 4.332 0 0 1 .922-.182c.126-.01.228-.014.304-.014.446 0 .858.082 1.237.247a3.026 3.026 0 0 1 1.625 1.672c.155.383.233.79.233 1.223 0 .4-.068.79-.203 1.165-.135.376-.339.71-.611 1.004a2.989 2.989 0 0 1-1.038.706c-.418.178-.912.267-1.48.267-.378 0-.736-.054-1.074-.162a2.834 2.834 0 0 1-.918-.494 3.14 3.14 0 0 1-.713-.824 3.931 3.931 0 0 1-.456-1.155h1.344c.077.252.178.476.304.672.126.196.27.36.433.493.162.133.336.234.523.304.187.07.378.105.571.105.275 0 .534-.053.777-.159.243-.106.456-.252.639-.44a2.129 2.129 0 0 0 .598-1.482c0-.302-.058-.579-.173-.831a2.068 2.068 0 0 0-1.1-1.068 1.929 1.929 0 0 0-1.19-.094c-.155.036-.307.09-.456.162-.149.072-.29.159-.426.26a2.062 2.062 0 0 0-.358.341H10.02z" fill="#525C6F" fill-rule="evenodd"/></svg><svg width="18" height="18" viewBox="0 0 18 18" id="heading6" x="54" y="36" xmlns="http://www.w3.org/2000/svg"><title>6</title><path d="M4.304 4v3.27c.275-.293.58-.49.916-.594a3.658 3.658 0 0 1 1.084-.156c.338 0 .649.054.932.162.284.108.529.257.733.446.205.19.364.412.477.67.112.256.169.535.169.837v4.878h-1.29V8.804c0-.207-.036-.383-.105-.527a.997.997 0 0 0-.28-.355 1.104 1.104 0 0 0-.403-.2c-.15-.04-.305-.06-.463-.06-.211 0-.422.044-.631.132-.21.088-.4.208-.568.361a1.873 1.873 0 0 0-.412.54 1.45 1.45 0 0 0-.159.67v4.148H3V4h1.304zm10.54 2.628a1.77 1.77 0 0 0-.524-.929 1.718 1.718 0 0 0-.479-.314 1.456 1.456 0 0 0-.598-.122c-.374 0-.691.096-.952.288-.262.191-.478.439-.649.743a3.86 3.86 0 0 0-.389 1.017 7.765 7.765 0 0 0-.179 1.108c.154-.19.321-.347.504-.473.182-.126.367-.226.554-.3.187-.075.37-.127.547-.156a3.117 3.117 0 0 1 1.733.196c.37.16.684.381.943.665.259.284.458.618.598 1.004.14.385.21.8.21 1.246 0 .41-.07.8-.207 1.17a2.793 2.793 0 0 1-1.53 1.628c-.37.162-.786.243-1.25.243a3.36 3.36 0 0 1-1.375-.274 2.802 2.802 0 0 1-1.054-.81c-.29-.359-.515-.805-.673-1.339-.157-.533-.236-1.152-.236-1.854 0-.892.08-1.662.24-2.311.16-.649.387-1.184.682-1.605.295-.42.65-.734 1.064-.939a3.097 3.097 0 0 1 1.392-.307c.42 0 .795.067 1.129.202a2.73 2.73 0 0 1 1.439 1.318c.148.293.25.595.304.905h-1.243zm-1.668 5.953c.238 0 .46-.052.665-.156.205-.103.383-.244.534-.422.151-.178.27-.387.355-.628.085-.241.128-.499.128-.774 0-.266-.04-.52-.121-.763a2.044 2.044 0 0 0-.345-.642 1.66 1.66 0 0 0-.537-.44 1.487 1.487 0 0 0-.693-.162 1.6 1.6 0 0 0-.784.183c-.22.122-.404.278-.55.47a2.02 2.02 0 0 0-.328.638 2.336 2.336 0 0 0-.108.69 2.12 2.12 0 0 0 .544 1.435c.164.178.354.318.567.419.214.101.439.152.673.152z" fill="#525C6F" fill-rule="evenodd"/></svg><svg width="18" height="18" viewBox="0 0 18 18" id="help" y="54" xmlns="http://www.w3.org/2000/svg"><title>help</title><g transform="translate(-1513 -46)" fill="none" fill-rule="evenodd"><circle stroke="#525C6F" cx="1521.5" cy="56.5" r="6"/><path d="M1521.671 58.075h-.764v-.378c0-.307.061-.572.184-.793.123-.221.343-.455.66-.7.31-.241.532-.466.665-.675.134-.21.2-.45.2-.723a.925.925 0 0 0-.31-.717c-.206-.187-.487-.28-.841-.28-.56 0-1.052.212-1.477.636v-.896a2.962 2.962 0 0 1 1.6-.462c.571 0 1.026.15 1.364.45.339.301.508.694.508 1.18 0 .34-.08.65-.237.928-.159.278-.424.571-.796.879-.299.249-.5.447-.602.593-.102.147-.154.352-.154.615v.343zm-.386.919c.155 0 .288.054.4.162.11.109.167.24.167.396a.53.53 0 0 1-.167.397.557.557 0 0 1-.4.16.55.55 0 0 1-.391-.157.527.527 0 0 1-.167-.4c0-.158.054-.291.164-.398a.544.544 0 0 1 .394-.16z" fill="#525C6F"/></g></svg><svg width="18" height="18" viewBox="0 0 18 18" id="hr" xmlns="http://www.w3.org/2000/svg"><title>horizontal rule</title><path d="M3 8h12v1H3z" fill="#525C6F" fill-rule="evenodd"/></svg><svg width="18" height="18" viewBox="0 0 18 18" id="html" x="36" y="54" xmlns="http://www.w3.org/2000/svg"><title>html</title><g transform="translate(-739 -46)" fill="#525C6F" fill-rule="evenodd"><path d="M742 50h12l-1 12-5 1-5-1-1-12zm10.913 1h-9.826l.847 10.167 4.066.813 4.066-.813.847-10.167z"/><path d="M745 53h6v1h-6zM745 56h6v1h-6zM745 58l3 1 3-1v1l-3 1-3-1z"/><path d="M745 53h1v4h-1zM750 57h1v2h-1z"/></g></svg><svg width="18" height="18" viewBox="0 0 18 18" id="image" x="54" y="54" xmlns="http://www.w3.org/2000/svg"><title>image</title><g transform="translate(2 4)" fill="none" fill-rule="evenodd"><path d="M1.007 0C.45 0 0 .449 0 1V12c0 .552.451 1 1.007 1h11.986C13.55 13 14 12.553 14 12V1C14 .447 13.549 0 12.993 0H1.007z" fill="#525C6F"/><path d="M13 12.002C13 11.998 1.007 12 1.007 12 1.001 12 1 .998 1 .998 1 1 12.993 1 12.993 1 12.999 1 13 12.003 13 12.003z" fill="#FFF"/><path d="M11.977 8a2.807 2.807 0 0 1-1.831.687A2.83 2.83 0 0 1 7.51 6.876c-.006.002-.011.007-.018.009A2.825 2.825 0 0 0 4.832 5 2.833 2.833 0 0 0 2 7.833c0 .057.014.111.017.167H2v3h10V8h-.023zM10 6a1.5 1.5 0 1 0-.001-3.001A1.5 1.5 0 0 0 10 6" fill="#525C6F"/></g></svg><svg width="18" height="18" viewBox="0 0 18 18" id="italic" x="72" xmlns="http://www.w3.org/2000/svg"><title>italic</title><path d="M7.239 4l-.186.995h1.385L6.675 14.01h-1.21l-.192.99H9.043l.217-.99H7.84l1.773-9.015h1.258L11.082 4z" fill="#525C6F" fill-rule="evenodd"/></svg><svg width="18" height="18" viewBox="0 0 18 18" id="link" x="72" y="18" xmlns="http://www.w3.org/2000/svg"><title>link</title><g transform="translate(-1197 -46)" fill="#525C6F" fill-rule="evenodd"><path d="M1204.125 59.2h-1.525a3.604 3.604 0 0 1-3.6-3.6c0-1.985 1.615-3.6 3.6-3.6h2c1.985 0 3.6 1.615 3.6 3.6a.6.6 0 1 1-1.2 0c0-1.323-1.077-2.4-2.4-2.4h-2a2.403 2.403 0 0 0-2.4 2.4c0 1.323 1.077 2.4 2.4 2.4h1.525a.6.6 0 1 1 0 1.2"/><path d="M1209.6 59.2h-2a3.604 3.604 0 0 1-3.6-3.6.6.6 0 1 1 1.2 0c0 1.323 1.077 2.4 2.4 2.4h2c1.323 0 2.4-1.077 2.4-2.4s-1.077-2.4-2.4-2.4h-1.525a.6.6 0 0 1 0-1.2h1.525c1.985 0 3.6 1.615 3.6 3.6s-1.615 3.6-3.6 3.6"/></g></svg><svg width="18" height="18" viewBox="0 0 18 18" id="ol" x="72" y="36" xmlns="http://www.w3.org/2000/svg"><title>ordered list</title><g transform="translate(-1077 -46)" fill="none" fill-rule="evenodd"><path fill="#525C6F" d="M1079 55v1h1v1h-1v1h3v-1h-1v-1h1v-1zM1079 50v1h1v2h1v-3zM1079 60v1h2v1h-2v1h3v-3z"/><path fill="#A9AEB7" d="M1080 61h1v1h-1z"/><path fill="#525C6F" d="M1084 56h8v1h-8zM1084 61h8v1h-8zM1084 51h8v1h-8z"/></g></svg><svg width="18" height="18" viewBox="0 0 18 18" id="pencil" x="72" y="54" xmlns="http://www.w3.org/2000/svg"><title>mark</title><g transform="translate(3 4)" fill="none" fill-rule="evenodd"><path fill="#FDBE5C" d="M0 11h13v3H0z"/><path fill="#FFF" d="M0 10h1v1H0zM1 11h1v1H1zM2 11h1v1H2zM3 11h1v1H3zM4 10h1v1H4zM5 10h1v1H5z"/><path d="M5.998 2.053L7.094.97 7.231 0H12v5.41l-1.029.61-1.429 1.33-.967.194-4.024-4.062 1.447-1.43z" fill="#525C6F" opacity=".248"/><path d="M7 0h1v1H7V0zM6 1h1v1H6V1zM5 2h1v1H5V2zM4 3h1v1H4V3zm4 4h1v1H8V7zm1 0h1v1H9V7zm1-1h1v1h-1V6zm1-1h1v1h-1V5zM6 5h1v1H6V5zM5 4h1v1H5V4zm2 2h1v1H7V6zM3 9h1v1H3V9zm0 1h1v1H3v-1zm-1 0h1v1H2v-1zm-1 0h1v1H1v-1zm1-1h1v1H2V9zm1-1h1v1H3V8zm0-1h1v1H3V7zm0-1h1v1H3V6zm1 3h1v1H4V9zm1 0h1v1H5V9zm1 0h1v1H6V9zM5 8h1v1H5V8zM4 8h1v1H4V8zm3 1h1v1H7V9zM6 8h1v1H6V8zM5 7h1v1H5V7zM4 6h1v1H4V6zM3 5h1v1H3V5z" fill="#414C62"/></g></svg><svg width="18" height="18" viewBox="0 0 18 18" id="quote" y="72" xmlns="http://www.w3.org/2000/svg"><title>quote</title><g transform="translate(-1008 -46)" fill="#525C6F" fill-rule="evenodd"><path d="M1011 56h5v6h-5zM1018 56h5v6h-5z"/><path d="M1016 61l-1 1v-1h1zm-4 1l-1-1h1v1zm3-6h1v6h-5v-9.499a2.494 2.494 0 0 1 2.5-2.501h2.5v1h-2.5c-.834 0-1.5.668-1.5 1.501V61h3v-5zm-4 5l1 1v-1h-1zm4 0h1l-1 1v-1zm0 0v-5h1v6h-5v-9.499a2.494 2.494 0 0 1 2.5-2.501h2.5v1h-2.5c-.834 0-1.5.668-1.5 1.501V61h3zM1023 61l-1 1v-1h1zm-4 1l-1-1h1v1zm3-6h1v6h-5v-9.499a2.494 2.494 0 0 1 2.5-2.501h2.5v1h-2.5c-.834 0-1.5.668-1.5 1.501V61h3v-5zm-3 6l-1-1h1v1zm4-1l-1 1v-1h1zm-1 0v-5h1v6h-5v-9.499a2.494 2.494 0 0 1 2.5-2.501h2.5v1h-2.5c-.834 0-1.5.668-1.5 1.501V61h3z" fill-rule="nonzero"/></g></svg><svg width="18" height="18" viewBox="0 0 18 18" id="seq" x="18" y="72" xmlns="http://www.w3.org/2000/svg"><title>sequence diagram</title><g transform="translate(-1428 -46)" fill="#525C6F" fill-rule="evenodd"><g transform="translate(1430 56)"><path d="M0 2h13v1H0zM12 1h1v1h-1zM12 3h1v1h-1zM12 4h1v1h-1zM13 3h1v1h-1zM13 2h1v1h-1zM14 2h1v1h-1zM13 1h1v1h-1zM12 0h1v1h-1z"/></g><path d="M1432 52h13v1h-13zM1432 50h1v1h-1zM1432 53h1v1h-1zM1431 53h1v1h-1zM1432 54h1v1h-1zM1431 51h1v1h-1zM1431 52h1v1h-1zM1430 52h1v1h-1zM1432 51h1v1h-1z"/></g></svg><svg width="18" height="18" viewBox="0 0 18 18" id="strikethrough" x="36" y="72" xmlns="http://www.w3.org/2000/svg"><title>stikethrough</title><g transform="translate(3 4)" fill="none" fill-rule="evenodd"><path d="M8.967.816c.712.563 1.113 1.408 1.216 2.52h-1.2c-.134-.77-.43-1.334-.89-1.705-.475-.385-1.141-.563-2.002-.563-.785 0-1.393.118-1.837.385-.504.297-.756.741-.756 1.35 0 .533.296.963.903 1.289.267.148.92.37 1.942.666 1.394.416 2.313.757 2.758 1.024.874.534 1.32 1.275 1.32 2.238 0 .92-.372 1.66-1.112 2.194-.742.52-1.735.785-2.995.785-1.246 0-2.223-.266-2.935-.8C2.55 9.562 2.09 8.598 2 7.294h1.202c.103.92.43 1.6.963 2.03.49.386 1.2.594 2.15.594.86 0 1.572-.163 2.105-.49.533-.326.8-.77.8-1.334 0-.667-.356-1.185-1.052-1.556-.297-.178-1.053-.43-2.239-.77-1.275-.386-2.09-.683-2.43-.86-.816-.475-1.216-1.158-1.216-2.047 0-.919.385-1.645 1.171-2.15C4.149.238 5.054 0 6.151 0c1.186 0 2.134.267 2.816.816" fill="#444D5F"/><path fill="#525C6F" d="M0 5h13v1H0z"/><path fill="#FFF" d="M0 6h9.983v1H0z"/></g></svg><svg width="18" height="18" viewBox="0 0 18 18" id="table" x="54" y="72" xmlns="http://www.w3.org/2000/svg"><title>table</title><g transform="translate(-1304 -46)" fill="none" fill-rule="evenodd"><path d="M1307.007 50c-.557 0-1.007.447-1.007.998v11.003c0 .551.451.999 1.007.999h11.986c.557 0 1.007-.448 1.007-.999V50.998c0-.551-.451-.998-1.007-.998h-11.986z" fill="#525C6F"/><path d="M1319 62.003c0-.002-11.993-.001-11.993-.001-.006 0-.007-11.002-.007-11.002 0 .002 11.993.002 11.993.002.006 0 .007 11.001.007 11.001z" fill="#FFF"/><path fill="#525C6F" fill-rule="nonzero" d="M1306.538 55H1320v-1h-14v1zM1306.538 59H1320v-1h-14v1z"/><path fill="#525C6F" fill-rule="nonzero" d="M1310 50.59V63h1V50h-1zM1315 50.59V63h1V50h-1z"/></g></svg><svg width="18" height="18" viewBox="0 0 18 18" id="ul" x="72" y="72" xmlns="http://www.w3.org/2000/svg"><title>unordered list</title><g transform="translate(-1040 -46)" fill="#525C6F" fill-rule="evenodd"><path d="M1043 60h2v2h-2zM1043 55h2v2h-2zM1043 50h2v2h-2zM1047 51h9v1h-9zM1047 56h9v1h-9zM1047 61h9v1h-9z"/></g></svg><svg width="18" height="18" viewBox="0 0 18 18" id="unchecked" x="90" xmlns="http://www.w3.org/2000/svg"><title>incomplete task list</title><rect x="1114.5" y="50.5" width="12" height="12" rx="2" transform="translate(-1111 -46)" stroke="#525C6F" fill="none" fill-rule="evenodd"/></svg><svg width="18" height="18" viewBox="0 0 18 18" id="underline" x="90" y="18" xmlns="http://www.w3.org/2000/svg"><title>insert</title><g transform="translate(4 4)" fill="#525C6F" fill-rule="evenodd"><path d="M0 13h11v-1H0zM2.264 0v5.576c0 1.08.231 1.896.724 2.451.51.57 1.31.863 2.404.863 1.08 0 1.88-.293 2.405-.863.477-.555.724-1.372.724-2.45V0h1.264v5.561c0 1.433-.37 2.528-1.095 3.283C7.935 9.614 6.841 10 5.392 10 3.944 10 2.85 9.614 2.11 8.86 1.37 8.09 1 6.993 1 5.56V.001h1.264z"/></g></svg></svg>